<svg xmlns="http://www.w3.org/2000/svg" viewBox="0 0 232 64" role="img" aria-label="TicketFlow monochrome logo">
  <rect x="0" y="0" width="64" height="64" rx="16" fill="#18181B"/>
  <path d="M18 22.5c0-3 2.4-5.5 5.5-5.5h24c3 0 5.5 2.4 5.5 5.5v5.2c-3.4 0-6.1 2.7-6.1 6.1 0 3.4 2.7 6.1 6.1 6.1v1.6c0 3-2.4 5.5-5.5 5.5h-24c-3 0-5.5-2.4-5.5-5.5v-1.6c3.4 0 6.1-2.7 6.1-6.1 0-3.4-2.7-6.1-6.1-6.1v-5.2Z" fill="#F4F4F5"/>
  <path d="M32 21h4l-3 9h7L28.8 44l3.1-10H25l7-13Z" fill="#18181B"/>
  <text x="80" y="39" fill="#18181B" font-family="Inter, Arial, sans-serif" font-size="26" font-weight="760" letter-spacing="0">TicketFlow</text>
</svg>
