<svg xmlns="http://www.w3.org/2000/svg" viewBox="0 0 64 64" role="img" aria-label="TicketFlow">
  <defs>
    <linearGradient id="g" x1="10" y1="8" x2="54" y2="56" gradientUnits="userSpaceOnUse">
      <stop stop-color="#A78BFA"/>
      <stop offset=".46" stop-color="#8B5CF6"/>
      <stop offset="1" stop-color="#7C3AED"/>
    </linearGradient>
  </defs>
  <rect width="64" height="64" rx="16" fill="#09090B"/>
  <path d="M18 22.5c0-3 2.4-5.5 5.5-5.5h24c3 0 5.5 2.4 5.5 5.5v5.2c-3.4 0-6.1 2.7-6.1 6.1 0 3.4 2.7 6.1 6.1 6.1v1.6c0 3-2.4 5.5-5.5 5.5h-24c-3 0-5.5-2.4-5.5-5.5v-1.6c3.4 0 6.1-2.7 6.1-6.1 0-3.4-2.7-6.1-6.1-6.1v-5.2Z" fill="url(#g)"/>
  <path d="M32 21h4l-3 9h7L28.8 44l3.1-10H25l7-13Z" fill="white"/>
</svg>
